<svg width="98" height="13" viewBox="0 0 98 13" fill="none" xmlns="http://www.w3.org/2000/svg">
<path d="M0.688 6.416C0.688 5.328 0.933333 4.352 1.424 3.488C1.91467 2.61333 2.58133 1.93067 3.424 1.44C4.27733 0.949333 5.22133 0.704 6.256 0.704C7.472 0.704 8.53333 0.997333 9.44 1.584C10.3467 2.17067 11.008 3.00267 11.424 4.08H9.68C9.37067 3.408 8.92267 2.89067 8.336 2.528C7.76 2.16533 7.06667 1.984 6.256 1.984C5.47733 1.984 4.77867 2.16533 4.16 2.528C3.54133 2.89067 3.056 3.408 2.704 4.08C2.352 4.74133 2.176 5.52 2.176 6.416C2.176 7.30133 2.352 8.08 2.704 8.752C3.056 9.41333 3.54133 9.92533 4.16 10.288C4.77867 10.6507 5.47733 10.832 6.256 10.832C7.06667 10.832 7.76 10.656 8.336 10.304C8.92267 9.94133 9.37067 9.424 9.68 8.752H11.424C11.008 9.81867 10.3467 10.6453 9.44 11.232C8.53333 11.808 7.472 12.096 6.256 12.096C5.22133 12.096 4.27733 11.856 3.424 11.376C2.58133 10.8853 1.91467 10.208 1.424 9.344C0.933333 8.48 0.688 7.504 0.688 6.416ZM20.1834 9.52H15.3194L14.4234 12H12.8874L16.9194 0.912H18.5994L22.6154 12H21.0794L20.1834 9.52ZM19.7674 8.336L17.7514 2.704L15.7354 8.336H19.7674ZM31.2366 0.848V2.032H28.1966V12H26.7406V2.032H23.6846V0.848H31.2366ZM34.4849 2.032V5.76H38.5489V6.96H34.4849V10.8H39.0289V12H33.0289V0.832H39.0289V2.032H34.4849ZM49.68 4.08C49.3707 3.42933 48.9227 2.928 48.336 2.576C47.7493 2.21333 47.0667 2.032 46.288 2.032C45.5093 2.032 44.8053 2.21333 44.176 2.576C43.5573 2.928 43.0667 3.44 42.704 4.112C42.352 4.77333 42.176 5.54133 42.176 6.416C42.176 7.29067 42.352 8.05867 42.704 8.72C43.0667 9.38133 43.5573 9.89333 44.176 10.256C44.8053 10.608 45.5093 10.784 46.288 10.784C47.376 10.784 48.272 10.4587 48.976 9.808C49.68 9.15733 50.0907 8.27733 50.208 7.168H45.76V5.984H51.76V7.104C51.6747 8.02133 51.3867 8.864 50.896 9.632C50.4053 10.3893 49.76 10.992 48.96 11.44C48.16 11.8773 47.2693 12.096 46.288 12.096C45.2533 12.096 44.3093 11.856 43.456 11.376C42.6027 10.8853 41.9253 10.208 41.424 9.344C40.9333 8.48 40.688 7.504 40.688 6.416C40.688 5.328 40.9333 4.352 41.424 3.488C41.9253 2.61333 42.6027 1.936 43.456 1.456C44.3093 0.965333 45.2533 0.719999 46.288 0.719999C47.472 0.719999 48.5173 1.01333 49.424 1.6C50.3413 2.18667 51.008 3.01333 51.424 4.08H49.68ZM58.7411 12.112C57.7065 12.112 56.7625 11.872 55.9091 11.392C55.0558 10.9013 54.3785 10.224 53.8771 9.36C53.3865 8.48533 53.1411 7.504 53.1411 6.416C53.1411 5.328 53.3865 4.352 53.8771 3.488C54.3785 2.61333 55.0558 1.936 55.9091 1.456C56.7625 0.965333 57.7065 0.719999 58.7411 0.719999C59.7865 0.719999 60.7358 0.965333 61.5891 1.456C62.4425 1.936 63.1145 2.608 63.6051 3.472C64.0958 4.336 64.3411 5.31733 64.3411 6.416C64.3411 7.51467 64.0958 8.496 63.6051 9.36C63.1145 10.224 62.4425 10.9013 61.5891 11.392C60.7358 11.872 59.7865 12.112 58.7411 12.112ZM58.7411 10.848C59.5198 10.848 60.2185 10.6667 60.8371 10.304C61.4665 9.94133 61.9571 9.424 62.3091 8.752C62.6718 8.08 62.8531 7.30133 62.8531 6.416C62.8531 5.52 62.6718 4.74133 62.3091 4.08C61.9571 3.408 61.4718 2.89067 60.8531 2.528C60.2345 2.16533 59.5305 1.984 58.7411 1.984C57.9518 1.984 57.2478 2.16533 56.6291 2.528C56.0105 2.89067 55.5198 3.408 55.1571 4.08C54.8051 4.74133 54.6291 5.52 54.6291 6.416C54.6291 7.30133 54.8051 8.08 55.1571 8.752C55.5198 9.424 56.0105 9.94133 56.6291 10.304C57.2585 10.6667 57.9625 10.848 58.7411 10.848ZM72.1353 12L69.4793 7.44H67.7193V12H66.2633V0.848H69.8633C70.7059 0.848 71.4153 0.992 71.9913 1.28C72.5779 1.568 73.0153 1.95733 73.3033 2.448C73.5913 2.93867 73.7353 3.49867 73.7353 4.128C73.7353 4.896 73.5113 5.57333 73.0633 6.16C72.6259 6.74667 71.9646 7.136 71.0793 7.328L73.8793 12H72.1353ZM67.7193 6.272H69.8633C70.6526 6.272 71.2446 6.08 71.6393 5.696C72.0339 5.30133 72.2313 4.77867 72.2313 4.128C72.2313 3.46667 72.0339 2.95467 71.6393 2.592C71.2553 2.22933 70.6633 2.048 69.8633 2.048H67.7193V6.272ZM77.4536 0.848V12H75.9976V0.848H77.4536ZM86.5271 9.52H81.6631L80.7671 12H79.2311L83.2631 0.912H84.9431L88.9591 12H87.4231L86.5271 9.52ZM86.1111 8.336L84.0951 2.704L82.0791 8.336H86.1111ZM94.2524 12.112C93.5164 12.112 92.855 11.984 92.2684 11.728C91.6924 11.4613 91.239 11.0987 90.9084 10.64C90.5777 10.1707 90.407 9.632 90.3964 9.024H91.9484C92.0017 9.54667 92.215 9.98933 92.5884 10.352C92.9724 10.704 93.527 10.88 94.2524 10.88C94.9457 10.88 95.4897 10.7093 95.8844 10.368C96.2897 10.016 96.4924 9.568 96.4924 9.024C96.4924 8.59733 96.375 8.25067 96.1404 7.984C95.9057 7.71733 95.6124 7.51467 95.2604 7.376C94.9084 7.23733 94.4337 7.088 93.8364 6.928C93.1004 6.736 92.5084 6.544 92.0604 6.352C91.623 6.16 91.2444 5.86133 90.9244 5.456C90.615 5.04 90.4604 4.48533 90.4604 3.792C90.4604 3.184 90.615 2.64533 90.9244 2.176C91.2337 1.70667 91.6657 1.344 92.2204 1.088C92.7857 0.831999 93.431 0.704 94.1564 0.704C95.2017 0.704 96.055 0.965333 96.7164 1.488C97.3884 2.01067 97.767 2.704 97.8524 3.568H96.2524C96.199 3.14133 95.975 2.768 95.5804 2.448C95.1857 2.11733 94.663 1.952 94.0124 1.952C93.4044 1.952 92.9084 2.112 92.5244 2.432C92.1404 2.74133 91.9484 3.17867 91.9484 3.744C91.9484 4.14933 92.0604 4.48 92.2844 4.736C92.519 4.992 92.8017 5.18933 93.1324 5.328C93.4737 5.456 93.9484 5.60533 94.5564 5.776C95.2924 5.97867 95.8844 6.18133 96.3324 6.384C96.7804 6.576 97.1644 6.88 97.4844 7.296C97.8044 7.70133 97.9644 8.256 97.9644 8.96C97.9644 9.504 97.8204 10.016 97.5324 10.496C97.2444 10.976 96.8177 11.3653 96.2524 11.664C95.687 11.9627 95.0204 12.112 94.2524 12.112Z" fill="white"/>
</svg>
